<?xml version="1.0" encoding="UTF-8" standalone="no"?>
<!-- Created with Inkscape (http://www.inkscape.org/) -->

<svg
   xmlns:dc="http://purl.org/dc/elements/1.1/"
   xmlns:cc="http://creativecommons.org/ns#"
   xmlns:rdf="http://www.w3.org/1999/02/22-rdf-syntax-ns#"
   xmlns:svg="http://www.w3.org/2000/svg"
   xmlns="http://www.w3.org/2000/svg"
   xmlns:sodipodi="http://sodipodi.sourceforge.net/DTD/sodipodi-0.dtd"
   xmlns:inkscape="http://www.inkscape.org/namespaces/inkscape"
   width="100mm"
   height="100mm"
   viewBox="0 0 100 100"
   version="1.1"
   id="svg8"
   sodipodi:docname="handy.svg"
   inkscape:version="0.92.2 5c3e80d, 2017-08-06">
  <defs
     id="defs2" />
  <sodipodi:namedview
     id="base"
     pagecolor="#ffffff"
     bordercolor="#666666"
     borderopacity="1.0"
     inkscape:pageopacity="0.0"
     inkscape:pageshadow="2"
     inkscape:zoom="0.98994949"
     inkscape:cx="112.73579"
     inkscape:cy="162.44746"
     inkscape:document-units="mm"
     inkscape:current-layer="layer1"
     showgrid="false"
     fit-margin-top="0"
     fit-margin-left="0"
     fit-margin-right="0"
     fit-margin-bottom="0"
     inkscape:window-width="1920"
     inkscape:window-height="1016"
     inkscape:window-x="0"
     inkscape:window-y="27"
     inkscape:window-maximized="1" />
  <metadata
     id="metadata5">
    <rdf:RDF>
      <cc:Work
         rdf:about="">
        <dc:format>image/svg+xml</dc:format>
        <dc:type
           rdf:resource="http://purl.org/dc/dcmitype/StillImage" />
        <dc:title></dc:title>
      </cc:Work>
    </rdf:RDF>
  </metadata>
  <g
     inkscape:label="Layer 1"
     inkscape:groupmode="layer"
     id="layer1"
     transform="translate(-21.725515,-161.5437)">
    <rect
       style="opacity:1;fill:#000000;fill-opacity:1;stroke:#00ff00;stroke-width:2.25278234;stroke-linecap:round;stroke-linejoin:round;stroke-miterlimit:4;stroke-dasharray:none;stroke-opacity:1;paint-order:markers fill stroke"
       id="rect3699"
       width="97.747215"
       height="97.747215"
       x="22.851906"
       y="162.67009"
       ry="15.794515" />
    <g
       aria-label="$_"
       transform="scale(0.96756396,1.0335234)"
       style="font-style:normal;font-variant:normal;font-weight:normal;font-stretch:normal;font-size:52.47907639px;line-height:125%;font-family:'Heavy Metal Rocking';-inkscape-font-specification:'Heavy Metal Rocking';letter-spacing:0px;word-spacing:0px;fill:#000000;fill-opacity:1;stroke:none;stroke-width:1.31197691px;stroke-linecap:butt;stroke-linejoin:miter;stroke-opacity:1"
       id="text4514">
      <path
         d="m 59.600878,226.14263 h -2.562454 l -0.02562,-7.71299 q -2.690578,-0.0513 -5.381155,-0.61499 -2.690578,-0.58936 -5.40678,-1.74247 v -4.61242 q 2.613704,1.63998 5.278657,2.48559 2.690578,0.81998 5.534903,0.84561 v -11.6848 q -5.663026,-0.92248 -8.251105,-3.12619 -2.562455,-2.20371 -2.562455,-6.0474 0,-4.1768 2.793076,-6.58551 2.793076,-2.4087 8.020484,-2.76745 v -6.02177 h 2.562454 v 5.9449 q 2.383083,0.1025 4.612419,0.51249 2.229336,0.38437 4.356174,1.07623 v 4.4843 q -2.126838,-1.07623 -4.381798,-1.6656 -2.229336,-0.58936 -4.586795,-0.69186 v 10.94168 q 5.816773,0.89686 8.5586,3.20307 2.741827,2.30621 2.741827,6.30364 0,4.33055 -2.921199,6.84175 -2.895574,2.48558 -8.379228,2.86995 z m -2.562454,-27.44389 v -10.50607 q -2.972448,0.33312 -4.535546,1.69122 -1.563097,1.35811 -1.563097,3.61307 0,2.20371 1.434975,3.43369 1.460599,1.22997 4.663668,1.76809 z m 2.562454,4.91991 v 11.09543 q 3.254318,-0.43562 4.894289,-1.84497 1.665596,-1.40935 1.665596,-3.71556 0,-2.25496 -1.588722,-3.58743 -1.563098,-1.33248 -4.971163,-1.94747 z"
         style="fill:#00ff00;fill-opacity:1;stroke-width:1.31197691px"
         id="path4585" />
      <path
         d="m 102.03513,227.14199 v 3.66431 H 74.770613 v -3.66431 z"
         style="fill:#00ff00;fill-opacity:1;stroke-width:1.31197691px"
         id="path4587" />
    </g>
    <g
       aria-label="∨"
       transform="scale(0.96754882,1.0335396)"
       style="font-style:normal;font-variant:normal;font-weight:normal;font-stretch:normal;font-size:52.47906494px;line-height:125%;font-family:'Heavy Metal Rocking';-inkscape-font-specification:'Heavy Metal Rocking';letter-spacing:0px;word-spacing:0px;fill:#000000;fill-opacity:1;stroke:none;stroke-width:1.31197667px;stroke-linecap:butt;stroke-linejoin:miter;stroke-opacity:1"
       id="text4514-6">
      <path
         d="m 75.963625,178.55505 h 4.996786 l 7.456742,24.08707 7.431118,-24.08707 h 4.996789 l -9.224839,30.39071 h -6.406136 z"
         style="fill:#00ff00;fill-opacity:1;stroke-width:1.31197667px"
         id="path4582" />
    </g>
  </g>
</svg>
